# xmcd
#
# Track frame offsets:
#	150
#	11784
#	23584
#	34387
#	47282
#	59823
#	72670
#	85889
#	98710
#	113162
#	125064
#	141205
#	155359
#	165750
#	178523
#	189221
#	201156
#	212716
#	226938
#	239459
#
# Disc length: 3332 seconds
#
# Revision: 0
# Processed by: cddbd v1.5.1PL0 Copyright (c) Steve Scherf et al.
# Submitted via: dBpowerAMP V4.0
#
DISCID=100d0214
DTITLE=Ray Charles - BD Jazz CD2
DYEAR=1900
DGENRE=Blues
TTITLE0=She's on the ball
TTITLE1=What I have done?
TTITLE2=The ego song
TTITLE3=Don't put all your dreams in one basket
TTITLE4=Rockin' chair blues
TTITLE5=The show is failling
TTITLE6=Baby wont your please come home
TTITLE7=Lonely boy
TTITLE8=Someday
TTITLE9=If I give you my love
TTITLE10=Let me hear you call my name
TTITLE11=Late in the evening blues
TTITLE12=Ain't that fine
TTITLE13=You'll never miss the water 
TTITLE14=Het now
TTITLE15=See see rider
TTITLE16=How long blues
TTITLE17=Misery in my heart
TTITLE18=Honey honey
TTITLE19=Sittin' on top of the world
EXTD=
EXTT0=
EXTT1=
EXTT2=
EXTT3=
EXTT4=
EXTT5=
EXTT6=
EXTT7=
EXTT8=
EXTT9=
EXTT10=
EXTT11=
EXTT12=
EXTT13=
EXTT14=
EXTT15=
EXTT16=
EXTT17=
EXTT18=
EXTT19=
PLAYORDER=
